#N canvas 250 232 983 315 10;
#X obj 167 43 inlet~;
#X obj 213 43 inlet~;
#X obj 257 43 inlet~;
#X obj 303 43 inlet~;
#X obj 346 43 inlet~;
#X obj 392 43 inlet~;
#X obj 436 43 inlet~;
#X obj 482 43 inlet~;
#X obj 527 43 inlet~;
#X obj 573 43 inlet~;
#X obj 617 43 inlet~;
#X obj 663 43 inlet~;
#X obj 35 118 throw~ c21;
#X obj 103 118 throw~ c22;
#X obj 171 118 throw~ c23;
#X obj 239 118 throw~ c24;
#X obj 307 118 throw~ c25;
#X obj 375 118 throw~ c26;
#X obj 443 118 throw~ c27;
#X obj 511 118 throw~ c28;
#X obj 578 118 throw~ c29;
#X obj 646 118 throw~ c30;
#X obj 714 118 throw~ c31;
#X obj 782 118 throw~ c32;
#X connect 0 0 12 0;
#X connect 1 0 13 0;
#X connect 2 0 14 0;
#X connect 3 0 15 0;
#X connect 4 0 16 0;
#X connect 5 0 17 0;
#X connect 6 0 18 0;
#X connect 7 0 19 0;
#X connect 8 0 20 0;
#X connect 9 0 21 0;
#X connect 10 0 22 0;
#X connect 11 0 23 0;
