#N canvas 626 87 418 463 10;
#X obj 44 14 inlet;
#X obj 45 126 list split 1;
#X obj 91 151 list;
#X obj 45 257 soundfiler;
#X obj 57 211 print LOADING SOUND;
#X msg 45 44 bang;
#X obj 45 173 t a a;
#X obj 45 67 audio_tables;
#X obj 92 178 list length;
#X obj 200 59 table silence;
#X obj 162 290 list length;
#X obj 129 346 select;
#X obj 57 97 t l l b;
#X msg 103 287 0;
#X obj 85 312 f;
#X obj 116 312 + 1;
#X msg 46 283 bang;
#X obj 129 368 bng 15 250 50 0 empty empty empty 17 7 0 10 -262144
-1 -1;
#X obj 168 315 - 1;
#X obj 129 388 delay 250;
#X obj 129 409 outlet;
#X msg 206 386 All sound files loaded;
#X obj 206 408 print;
#X text 121 254 formerly had '-maxsize 4e+07' after -resize;
#X msg 45 234 read -resize -maxsize 1e+08 \$1.wav \$1;
#X connect 0 0 5 0;
#X connect 1 0 6 0;
#X connect 1 1 2 0;
#X connect 2 0 1 0;
#X connect 2 0 8 0;
#X connect 3 0 16 0;
#X connect 5 0 7 0;
#X connect 6 0 24 0;
#X connect 6 0 4 0;
#X connect 7 0 12 0;
#X connect 10 0 18 0;
#X connect 11 0 17 0;
#X connect 12 0 1 0;
#X connect 12 1 10 0;
#X connect 12 2 13 0;
#X connect 13 0 14 1;
#X connect 14 0 15 0;
#X connect 14 0 11 0;
#X connect 15 0 14 1;
#X connect 16 0 14 0;
#X connect 17 0 19 0;
#X connect 18 0 11 1;
#X connect 19 0 20 0;
#X connect 19 0 21 0;
#X connect 21 0 22 0;
#X connect 24 0 3 0;
