#N canvas 61 22 1474 956 10;
#X floatatom 570 571 5 0 0 0 - - -;
#X obj 495 539 loadbang;
#X text 491 517 pan width;
#X msg 495 565 0;
#X msg 1260 80 stop;
#X obj 1191 80 t b b;
#X msg 1299 104 1;
#X obj 1299 81 loadbang;
#X text 1328 106 init vol;
#X obj 466 704 tgl 15 0 empty empty empty 17 7 0 10 -262144 -1 -1 1
1;
#X obj 1191 106 elooper~;
#X obj 415 836 throw~ devL;
#X obj 492 836 throw~ devR;
#X obj 415 798 panner~;
#X obj 465 593 linear_panner_9ch~;
#X obj 465 631 ch_thrower_1-9;
#X obj 415 769 moog~;
#X obj 416 742 *~ 1;
#X obj 169 139 envgen 200 140 1 0  ;
#X obj -16 315 list prepend set;
#X obj -16 336 list trim;
#X msg 109 341 0 493.64 0.128571 555.345 0.364286 502.456 0.735714
211.56 1;
#X msg 194 50 dump;
#X text 227 49 save/overwrite;
#X text 238 107 ATTACK;
#X obj 7 161 delay \$1;
#X msg 267 72 duration \$1;
#X obj 44 -79 bng 15 250 50 0 empty empty empty 17 7 0 10 -262144 -1
-1;
#X text 64 -79 TRIG;
#X obj 44 -58 s \$0-trig;
#X obj 43 -32 r \$0-trig;
#X obj 43 -9 t b b;
#X obj 436 140 envgen 200 140 1 0  ;
#X obj 527 312 list prepend set;
#X obj 527 333 list trim;
#X msg 527 359 0 2723.7 0.457143 2464.3 1;
#X msg 539 12 dump;
#X text 572 11 save/overwrite;
#X obj 519 405 delay \$1;
#X msg 541 54 duration \$1;
#X obj 450 -55 t b b;
#X obj 705 138 envgen 200 140 1 0  ;
#X obj 1040 257 list prepend set;
#X obj 1040 278 list trim;
#X msg 790 315 0.992857 224.64 0.557143 542.88 0.128571 1104.48 0;
#X msg 882 54 dump;
#X text 915 53 save/overwrite;
#X obj 836 384 *~ 8000;
#X msg 1032 -6 duration \$1;
#X obj 453 740 r~ \$0-filter;
#X obj 170 555 throw~ \$0-filter;
#X obj 179 659 catch~ \$0-filter;
#X obj 179 682 send~ \$0-filter;
#X obj 836 443 throw~ \$0-filter;
#X obj 570 543 r \$0-pan;
#X obj 7 186 s \$0-pan-trig;
#X obj 450 -98 r \$0-pan-trig;
#X obj 550 435 s \$0-rel-trig;
#X floatatom 537 767 5 0 0 0 - - -;
#X obj 537 739 r \$0-pan;
#X obj -7 206 bng 15 250 50 0 empty empty empty 17 7 0 10 -262144 -1
-1;
#X obj 433 385 send \$0-pan;
#X floatatom 455 315 5 0 0 0 - - -;
#X obj 496 16 bng 15 250 50 0 empty empty empty 17 7 0 10 -262144 -1
-1;
#X obj 170 448 line;
#X obj 433 362 line;
#X obj 836 361 line;
#X obj 519 446 bng 15 250 50 0 empty empty empty 17 7 0 10 -262144
-1 -1;
#X obj 846 63 bng 15 250 50 0 empty empty empty 17 7 0 10 -262144 -1
-1;
#X obj 170 527 spigot~;
#X obj 268 472 r \$0-trig;
#X obj 836 414 spigot~;
#X obj 934 379 r \$0-rel-trig;
#X obj 1065 74 delay \$1;
#X msg 237 472 1;
#X msg 268 494 0;
#X msg 903 379 1;
#X msg 934 401 0;
#X obj 237 446 r \$0-rel-trig;
#X obj 450 -75 bng 15 250 50 0 empty empty empty 17 7 0 10 -262144
-1 -1;
#X obj 810 -5 t b b;
#X obj 810 -26 bng 15 250 50 0 empty empty empty 17 7 0 10 -262144
-1 -1;
#X obj 810 -48 r \$0-rel-trig;
#X obj 1065 110 bng 15 250 50 0 empty empty empty 17 7 0 10 -262144
-1 -1;
#X obj 170 473 * 8000;
#X obj 170 501 sig~;
#X obj 1065 153 s \$0-pan;
#X msg 1065 129 0;
#X obj 1260 56 r stop;
#X obj 1158 49 r start;
#X obj 44 -131 inlet trig;
#X obj 1124 -74 inlet tablename;
#X obj 98 -12 loadbang;
#X obj 466 676 r headphones;
#X text 1222 -72 needs a set msg;
#X msg 1239 27 LIGHT_B;
#X text 515 109 PAN;
#X text 778 106 RELEASE;
#X obj 109 199 nbx 5 14 -1e+37 1e+37 0 0 empty empty empty 0 -8 0 10
-262144 -1 -1 1763 256;
#X text 115 174 dur;
#X obj 645 197 nbx 5 14 -1e+37 1e+37 0 0 empty empty empty 0 -8 0 10
-262144 -1 -1 1872 256;
#X text 655 178 dur;
#X obj 376 194 nbx 5 14 -1e+37 1e+37 0 0 empty empty empty 0 -8 0 10
-262144 -1 -1 5188 256;
#X text 384 175 dur;
#X obj 406 47 loadbang;
#X obj 647 52 loadbang;
#X msg 406 69 5188;
#X msg 647 74 1872;
#X obj 107 257 bng 30 250 50 0 empty empty save/overwrite 0 35 0 10
-258113 -1 -1;
#X obj 104 46 loadbang;
#X msg 104 74 1763;
#X msg 39 102 set \$1;
#X msg 357 70 set \$1;
#X msg 595 75 set \$1;
#X obj 113 311 loadbang;
#X obj 601 335 loadbang;
#X obj 716 310 loadbang;
#X obj 995 551 outlet done;
#X obj 44 -107 t b b;
#X obj 100 -85 s \$0-start;
#X obj 1163 23 r \$0-start;
#X obj 920 119 volume~;
#X obj 625 771 - 100;
#X obj 624 747 env~ 16384;
#X connect 0 0 14 2;
#X connect 1 0 3 0;
#X connect 3 0 14 1;
#X connect 4 0 10 0;
#X connect 5 0 10 0;
#X connect 5 1 95 0;
#X connect 6 0 121 1;
#X connect 7 0 6 0;
#X connect 9 0 17 1;
#X connect 10 0 121 0;
#X connect 13 0 11 0;
#X connect 13 1 12 0;
#X connect 14 0 15 0;
#X connect 14 1 15 1;
#X connect 14 2 15 2;
#X connect 14 3 15 3;
#X connect 14 4 15 4;
#X connect 14 5 15 5;
#X connect 14 6 15 6;
#X connect 14 7 15 7;
#X connect 14 8 15 8;
#X connect 16 0 13 0;
#X connect 16 0 123 0;
#X connect 17 0 16 0;
#X connect 18 0 64 0;
#X connect 18 1 19 0;
#X connect 19 0 20 0;
#X connect 20 0 21 0;
#X connect 21 0 18 0;
#X connect 22 0 18 0;
#X connect 25 0 55 0;
#X connect 25 0 60 0;
#X connect 26 0 18 0;
#X connect 27 0 29 0;
#X connect 30 0 31 0;
#X connect 31 0 18 0;
#X connect 31 1 25 0;
#X connect 32 0 62 0;
#X connect 32 0 65 0;
#X connect 32 1 33 0;
#X connect 33 0 34 0;
#X connect 34 0 35 0;
#X connect 35 0 32 0;
#X connect 36 0 32 0;
#X connect 38 0 57 0;
#X connect 38 0 67 0;
#X connect 39 0 32 0;
#X connect 40 0 32 0;
#X connect 40 1 38 0;
#X connect 41 0 66 0;
#X connect 41 1 42 0;
#X connect 42 0 43 0;
#X connect 43 0 44 0;
#X connect 44 0 41 0;
#X connect 45 0 41 0;
#X connect 47 0 71 0;
#X connect 48 0 41 0;
#X connect 49 0 16 1;
#X connect 51 0 52 0;
#X connect 54 0 0 0;
#X connect 56 0 79 0;
#X connect 58 0 13 1;
#X connect 59 0 58 0;
#X connect 63 0 32 0;
#X connect 64 0 84 0;
#X connect 65 0 61 0;
#X connect 66 0 47 0;
#X connect 68 0 41 0;
#X connect 69 0 50 0;
#X connect 70 0 75 0;
#X connect 71 0 53 0;
#X connect 72 0 77 0;
#X connect 73 0 76 0;
#X connect 73 0 83 0;
#X connect 74 0 69 1;
#X connect 75 0 69 1;
#X connect 76 0 71 1;
#X connect 77 0 71 1;
#X connect 78 0 74 0;
#X connect 79 0 40 0;
#X connect 80 0 41 0;
#X connect 80 1 73 0;
#X connect 81 0 80 0;
#X connect 82 0 81 0;
#X connect 83 0 87 0;
#X connect 83 0 117 0;
#X connect 84 0 85 0;
#X connect 85 0 69 0;
#X connect 87 0 86 0;
#X connect 88 0 4 0;
#X connect 89 0 5 0;
#X connect 90 0 118 0;
#X connect 91 0 95 0;
#X connect 93 0 9 0;
#X connect 95 0 10 2;
#X connect 98 0 26 0;
#X connect 98 0 25 1;
#X connect 98 0 111 0;
#X connect 100 0 48 0;
#X connect 100 0 73 1;
#X connect 100 0 113 0;
#X connect 102 0 39 0;
#X connect 102 0 38 1;
#X connect 102 0 112 0;
#X connect 104 0 106 0;
#X connect 105 0 107 0;
#X connect 106 0 102 0;
#X connect 107 0 100 0;
#X connect 108 0 22 0;
#X connect 108 0 36 0;
#X connect 108 0 45 0;
#X connect 109 0 110 0;
#X connect 110 0 98 0;
#X connect 111 0 110 0;
#X connect 112 0 106 0;
#X connect 113 0 107 0;
#X connect 114 0 21 0;
#X connect 115 0 35 0;
#X connect 116 0 44 0;
#X connect 118 0 27 0;
#X connect 118 1 119 0;
#X connect 120 0 5 0;
#X connect 121 0 17 0;
#X connect 122 0 121 2;
#X connect 123 0 122 0;
#X coords 0 -1 1 1 920 200 1 100 100;
