#N canvas 109 86 1544 901 10;
#X obj 123 313 bng 15 250 50 0 empty empty empty 17 7 0 10 -262144
-1 -1;
#X floatatom 1132 447 5 0 0 0 - - -;
#X obj 1193 146 f;
#X obj 1222 145 + 1;
#X floatatom 1146 290 5 0 0 0 - - -;
#X obj 1137 117 bng 15 250 50 0 empty empty empty 17 7 0 10 -262144
-1 -1;
#X obj 964 221 random 3;
#X floatatom 1132 403 5 0 0 0 - - -;
#X obj 1132 379 -;
#X obj 1132 322 t b f;
#X text 1159 377 invert mod;
#X text 855 238 pick sound;
#X obj 964 244 sel 0 1 2;
#X obj 123 287 r \$0-trig1;
#X obj 1036 582 s \$0-reseed1;
#X obj 1169 89 r \$0-reseed1;
#X obj 1132 492 delay \$1;
#X obj 1132 468 t b f;
#X floatatom 857 269 5 0 0 0 - - -;
#X obj 1132 517 s \$0-trig1;
#X obj 1178 117 t b b;
#X obj 237 560 r \$0-index;
#X obj 82 983 bng 15 250 50 0 empty empty empty 17 7 0 10 -262144 -1
-1;
#X obj 117 907 r \$0-trig2;
#X obj 915 869 random 3;
#X text 806 886 pick sound;
#X obj 915 892 sel 0 1 2;
#X floatatom 778 970 5 0 0 0 - - -;
#X obj 1288 140 s \$0-newsound;
#X text 1180 424 convert to seconds / base multiplier;
#X obj 1132 258 mod 5;
#X obj 1132 355 4;
#X obj 1132 424 * 1000;
#X obj 1208 241 spigot;
#X obj 1132 232 spigot;
#X obj 1300 268 mod 5;
#X floatatom 1311 294 5 0 0 0 - - -;
#X text 1348 316 convert to seconds / base multiplier;
#X obj 1300 316 * 1000;
#X floatatom 1300 337 5 0 0 0 - - -;
#X obj 1300 380 delay \$1;
#X obj 1300 358 t b f;
#X obj 1300 403 s \$0-trig1;
#X floatatom 1281 201 5 0 0 0 - - -;
#X obj 1319 200 s \$0-index;
#X obj 1193 169 mod 20;
#X obj 1132 190 t f f;
#X obj 1208 199 t f f;
#X obj 1208 262 sel 9;
#X msg 1208 283 0;
#X obj 237 660 f;
#X obj 270 659 + 1;
#X floatatom 449 826 5 0 0 0 - - -;
#X floatatom 449 782 5 0 0 0 - - -;
#X obj 449 758 -;
#X obj 449 701 t b f;
#X text 476 756 invert mod;
#X obj 449 871 delay \$1;
#X obj 449 847 t b f;
#X text 497 803 convert to seconds / base multiplier;
#X obj 449 734 4;
#X obj 449 803 * 1000;
#X obj 611 648 mod 5;
#X floatatom 622 674 5 0 0 0 - - -;
#X text 659 696 convert to seconds / base multiplier;
#X obj 611 696 * 1000;
#X floatatom 611 717 5 0 0 0 - - -;
#X obj 611 760 delay \$1;
#X obj 611 738 t b f;
#X floatatom 463 668 5 0 0 0 - - -;
#X obj 449 636 mod 5;
#X obj 237 806 t f f;
#X obj 306 805 t f f;
#X obj 237 861 spigot;
#X floatatom 195 734 5 0 0 0 - - -;
#X floatatom 279 584 5 0 0 0 - - -;
#X obj 237 629 t b b;
#X floatatom 199 685 5 0 0 0 - - -;
#X obj 449 902 s \$0-trig2;
#X obj 611 783 s \$0-trig2;
#X obj 915 845 r \$0-newsound2;
#X obj 295 654 s \$0-newsound2;
#X floatatom 193 830 5 0 0 0 - - -;
#X obj 143 577 r \$0-reseed2;
#X msg 185 647 0;
#X obj 306 860 spigot;
#X obj 237 767 spigot;
#X obj 237 711 t f f;
#X obj 237 605 delay 5000;
#X obj 237 688 mod 11;
#X obj 285 737 <= 9;
#X obj 425 902 bng 15 250 50 0 empty empty empty 17 7 0 10 -262144
-1 -1;
#X obj 237 583 sel 4;
#X msg 1268 93 0;
#X obj 1165 212 <= 9;
#X obj 1241 220 > 9;
#X obj 270 828 <= 4;
#X obj 339 827 > 4;
#X obj 120 348 bird;
#X obj 84 65 inlet;
#X obj 698 639 throw~ devL;
#X obj 775 639 throw~ devR;
#X obj 721 577 panner~;
#X obj 82 1011 bird;
#X obj 884 564 loadbang;
#X msg 884 590 0.01;
#X obj 854 618 linear_panner_9ch~;
#X obj 854 656 ch_thrower_1-9;
#X obj 95 1347 throw~ devL;
#X obj 172 1347 throw~ devR;
#X obj 118 1285 panner~;
#X obj 541 1251 loadbang;
#X msg 541 1277 0.01;
#X obj 511 1305 linear_panner_9ch~;
#X obj 511 1343 ch_thrower_1-9;
#X obj 80 1247 spigot~;
#X obj 119 1224 r headphones;
#X obj 412 574 spigot~;
#X obj 452 548 r headphones;
#X obj 1418 165 inlet;
#X obj 1165 1317 outlet;
#X obj 1162 1283 r \$0-index;
#X obj 144 118 timer;
#X obj 1449 547 nbx 5 14 -1e+37 1e+37 0 0 empty empty time_elapsed
0 -8 0 10 -262144 -1 -1 0 256;
#X obj 283 114 r \$0-index;
#X obj 284 138 sel 19;
#X obj 153 176 + 10000;
#X obj 1449 579 outlet;
#X obj 1036 557 spigot;
#X obj 1081 465 r stop;
#X obj 1049 490 r loaded;
#X obj 995 1222 spigot;
#X obj 995 1247 s \$0-reseed2;
#X msg 1049 521 1;
#X msg 1081 520 0;
#X obj 1040 1130 r stop;
#X obj 1008 1155 r loaded;
#X msg 1008 1186 1;
#X msg 1040 1186 0;
#X msg 870 298 set LIGHT_A;
#X msg 950 298 set LIGHT_A;
#X msg 834 981 set LIGHT_A;
#X msg 914 981 set LIGHT_A;
#X msg 995 978 set LIGHT_A;
#X msg 1031 298 set LIGHT_A;
#X connect 0 0 98 0;
#X connect 1 0 17 0;
#X connect 2 0 3 0;
#X connect 2 0 45 0;
#X connect 3 0 2 1;
#X connect 6 0 12 0;
#X connect 6 0 18 0;
#X connect 7 0 32 0;
#X connect 8 0 7 0;
#X connect 9 0 31 0;
#X connect 9 1 8 1;
#X connect 12 0 139 0;
#X connect 12 1 140 0;
#X connect 12 2 144 0;
#X connect 13 0 0 0;
#X connect 15 0 5 0;
#X connect 15 0 20 0;
#X connect 16 0 19 0;
#X connect 17 0 16 0;
#X connect 17 1 16 1;
#X connect 20 0 2 0;
#X connect 20 1 6 0;
#X connect 20 1 28 0;
#X connect 21 0 75 0;
#X connect 21 0 92 0;
#X connect 22 0 103 0;
#X connect 23 0 22 0;
#X connect 24 0 26 0;
#X connect 24 0 27 0;
#X connect 26 0 141 0;
#X connect 26 1 142 0;
#X connect 26 2 143 0;
#X connect 30 0 4 0;
#X connect 30 0 9 0;
#X connect 31 0 8 0;
#X connect 32 0 1 0;
#X connect 33 0 48 0;
#X connect 34 0 30 0;
#X connect 35 0 36 0;
#X connect 35 0 38 0;
#X connect 38 0 39 0;
#X connect 39 0 41 0;
#X connect 40 0 42 0;
#X connect 41 0 40 0;
#X connect 41 1 40 1;
#X connect 45 0 43 0;
#X connect 45 0 44 0;
#X connect 45 0 46 0;
#X connect 45 0 47 0;
#X connect 46 0 34 0;
#X connect 46 1 94 0;
#X connect 47 0 33 0;
#X connect 47 1 95 0;
#X connect 48 0 49 0;
#X connect 48 1 35 0;
#X connect 49 0 35 0;
#X connect 50 0 51 0;
#X connect 50 0 77 0;
#X connect 50 0 89 0;
#X connect 51 0 50 1;
#X connect 52 0 58 0;
#X connect 53 0 61 0;
#X connect 54 0 53 0;
#X connect 55 0 60 0;
#X connect 55 1 54 1;
#X connect 57 0 78 0;
#X connect 57 0 91 0;
#X connect 58 0 57 0;
#X connect 58 1 57 1;
#X connect 60 0 54 0;
#X connect 61 0 52 0;
#X connect 62 0 63 0;
#X connect 62 0 65 0;
#X connect 65 0 66 0;
#X connect 66 0 68 0;
#X connect 67 0 79 0;
#X connect 68 0 67 0;
#X connect 68 1 67 1;
#X connect 70 0 69 0;
#X connect 70 0 55 0;
#X connect 71 0 73 0;
#X connect 71 0 82 0;
#X connect 71 1 96 0;
#X connect 72 0 85 0;
#X connect 72 1 97 0;
#X connect 73 0 70 0;
#X connect 76 0 50 0;
#X connect 76 1 81 0;
#X connect 80 0 24 0;
#X connect 83 0 76 0;
#X connect 84 0 50 1;
#X connect 85 0 62 0;
#X connect 86 0 71 0;
#X connect 86 0 72 0;
#X connect 87 0 86 0;
#X connect 87 1 90 0;
#X connect 88 0 76 0;
#X connect 89 0 74 0;
#X connect 89 0 87 0;
#X connect 90 0 86 1;
#X connect 92 0 88 0;
#X connect 93 0 2 1;
#X connect 94 0 34 1;
#X connect 95 0 33 1;
#X connect 96 0 73 1;
#X connect 97 0 85 1;
#X connect 98 0 117 0;
#X connect 98 1 105 0;
#X connect 98 2 106 2;
#X connect 98 2 102 1;
#X connect 98 3 128 0;
#X connect 99 0 0 0;
#X connect 99 0 122 0;
#X connect 102 0 100 0;
#X connect 102 1 101 0;
#X connect 103 0 115 0;
#X connect 103 1 112 0;
#X connect 103 2 113 2;
#X connect 103 2 110 1;
#X connect 103 3 131 0;
#X connect 104 0 105 0;
#X connect 105 0 106 1;
#X connect 106 0 107 0;
#X connect 106 1 107 1;
#X connect 106 2 107 2;
#X connect 106 3 107 3;
#X connect 106 4 107 4;
#X connect 106 5 107 5;
#X connect 106 6 107 6;
#X connect 106 7 107 7;
#X connect 106 8 107 8;
#X connect 110 0 108 0;
#X connect 110 1 109 0;
#X connect 111 0 112 0;
#X connect 112 0 113 1;
#X connect 113 0 114 0;
#X connect 113 1 114 1;
#X connect 113 2 114 2;
#X connect 113 3 114 3;
#X connect 113 4 114 4;
#X connect 113 5 114 5;
#X connect 113 6 114 6;
#X connect 113 7 114 7;
#X connect 113 8 114 8;
#X connect 115 0 110 0;
#X connect 115 1 113 0;
#X connect 116 0 115 1;
#X connect 117 0 102 0;
#X connect 117 1 106 0;
#X connect 118 0 117 1;
#X connect 119 0 38 1;
#X connect 119 0 65 1;
#X connect 119 0 32 1;
#X connect 121 0 120 0;
#X connect 122 0 126 0;
#X connect 123 0 127 0;
#X connect 124 0 125 0;
#X connect 125 0 122 1;
#X connect 126 0 123 0;
#X connect 128 0 14 0;
#X connect 129 0 134 0;
#X connect 130 0 133 0;
#X connect 131 0 132 0;
#X connect 133 0 128 1;
#X connect 134 0 128 1;
#X connect 135 0 138 0;
#X connect 136 0 137 0;
#X connect 137 0 131 1;
#X connect 138 0 131 1;
#X connect 139 0 98 1;
#X connect 140 0 98 1;
#X connect 141 0 103 1;
#X connect 142 0 103 1;
#X connect 143 0 103 1;
#X connect 144 0 98 1;
