#N canvas 199 26 1474 956 10;
#X msg 1260 80 stop;
#X obj 1191 80 t b b;
#X msg 1299 104 1;
#X obj 1299 81 loadbang;
#X text 1328 106 init vol;
#X obj 1191 106 elooper~;
#X obj 402 698 moog~;
#X obj 403 671 *~ 1;
#X obj 169 139 envgen 200 140 1 0  ;
#X obj -16 315 list prepend set;
#X obj -16 336 list trim;
#X msg 109 341 0 493.64 0.128571 555.345 0.364286 502.456 0.735714
211.56 1;
#X msg 194 50 dump;
#X text 227 49 save/overwrite;
#X text 238 107 ATTACK;
#X obj 7 161 delay \$1;
#X msg 267 72 duration \$1;
#X obj 44 -79 bng 15 250 50 0 empty empty empty 17 7 0 10 -262144 -1
-1;
#X text 64 -79 TRIG;
#X obj 44 -58 s \$0-trig;
#X obj 43 -32 r \$0-trig;
#X obj 43 -9 t b b;
#X obj 436 140 envgen 200 140 1 0  ;
#X obj 527 312 list prepend set;
#X obj 527 333 list trim;
#X msg 527 359 0 3032.93 0.485714 2744.07 1;
#X msg 539 12 dump;
#X text 572 11 save/overwrite;
#X obj 519 405 delay \$1;
#X msg 541 54 duration \$1;
#X obj 450 -55 t b b;
#X obj 705 138 envgen 200 140 1 0  ;
#X obj 1040 257 list prepend set;
#X obj 1040 278 list trim;
#X msg 790 315 1 224.64 0.557143 542.88 0.128571 1104.48 0;
#X msg 882 54 dump;
#X text 915 53 save/overwrite;
#X msg 1032 -6 duration \$1;
#X obj 440 669 r~ \$0-filter;
#X obj 170 555 throw~ \$0-filter;
#X obj 179 659 catch~ \$0-filter;
#X obj 179 682 send~ \$0-filter;
#X obj 836 462 throw~ \$0-filter;
#X obj 7 186 s \$0-pan-trig;
#X obj 450 -98 r \$0-pan-trig;
#X obj 550 435 s \$0-rel-trig;
#X obj -7 206 bng 15 250 50 0 empty empty empty 17 7 0 10 -262144 -1
-1;
#X obj 433 385 send \$0-pan;
#X floatatom 455 315 5 0 0 0 - - -;
#X obj 496 16 bng 15 250 50 0 empty empty empty 17 7 0 10 -262144 -1
-1;
#X obj 170 448 line;
#X obj 433 362 line;
#X obj 836 361 line;
#X obj 519 446 bng 15 250 50 0 empty empty empty 17 7 0 10 -262144
-1 -1;
#X obj 846 63 bng 15 250 50 0 empty empty empty 17 7 0 10 -262144 -1
-1;
#X obj 170 527 spigot~;
#X obj 268 472 r \$0-trig;
#X obj 836 433 spigot~;
#X obj 934 379 r \$0-rel-trig;
#X obj 1065 74 delay \$1;
#X msg 237 472 1;
#X msg 268 494 0;
#X msg 903 379 1;
#X msg 934 401 0;
#X obj 237 446 r \$0-rel-trig;
#X obj 450 -75 bng 15 250 50 0 empty empty empty 17 7 0 10 -262144
-1 -1;
#X obj 810 -5 t b b;
#X obj 810 -26 bng 15 250 50 0 empty empty empty 17 7 0 10 -262144
-1 -1;
#X obj 810 -48 r \$0-rel-trig;
#X obj 1065 110 bng 15 250 50 0 empty empty empty 17 7 0 10 -262144
-1 -1;
#X obj 170 473 * 8000;
#X obj 170 501 sig~;
#X obj 1065 153 s \$0-pan;
#X msg 1065 129 0;
#X obj 1260 56 r stop;
#X obj 44 -131 inlet trig;
#X obj 1124 -74 inlet tablename;
#X obj 98 -12 loadbang;
#X text 1222 -72 needs a set msg;
#X msg 1239 27 LIGHT_A;
#X text 515 109 PAN;
#X text 778 106 RELEASE;
#X obj 109 199 nbx 5 14 -1e+37 1e+37 0 0 empty empty empty 0 -8 0 10
-262144 -1 -1 1763 256;
#X text 115 174 dur;
#X obj 645 197 nbx 5 14 -1e+37 1e+37 0 0 empty empty empty 0 -8 0 10
-262144 -1 -1 1872 256;
#X text 655 178 dur;
#X obj 376 194 nbx 5 14 -1e+37 1e+37 0 0 empty empty empty 0 -8 0 10
-262144 -1 -1 5777 256;
#X text 384 175 dur;
#X obj 406 47 loadbang;
#X obj 647 52 loadbang;
#X msg 406 69 5777;
#X msg 647 74 1872;
#X obj 107 257 bng 30 250 50 0 empty empty save/overwrite 0 35 0 10
-258113 -1 -1;
#X obj 104 46 loadbang;
#X msg 104 74 1763;
#X msg 39 102 set \$1;
#X msg 357 70 set \$1;
#X msg 595 75 set \$1;
#X obj 113 311 loadbang;
#X obj 601 335 loadbang;
#X obj 716 310 loadbang;
#X obj 995 551 outlet done;
#X obj 44 -107 t b b;
#X obj 100 -85 s \$0-start;
#X obj 920 119 volume~;
#X obj 612 700 - 100;
#X obj 611 676 env~ 16384;
#X obj 558 115 nbx 5 14 -1e+37 1e+37 0 0 empty empty width 0 -8 0 10
-262144 -1 -1 0 256;
#X obj 836 384 * 8000;
#X obj 836 409 sig~;
#X msg 749 623 set \$1;
#X obj 402 735 outlet~;
#X obj 900 665 outlet pan;
#X obj 900 632 r \$0-pan;
#X obj 748 649 outlet width;
#X connect 0 0 5 0;
#X connect 1 0 5 0;
#X connect 1 1 79 0;
#X connect 2 0 104 1;
#X connect 3 0 2 0;
#X connect 5 0 104 0;
#X connect 6 0 106 0;
#X connect 6 0 111 0;
#X connect 7 0 6 0;
#X connect 8 0 50 0;
#X connect 8 1 9 0;
#X connect 9 0 10 0;
#X connect 10 0 11 0;
#X connect 11 0 8 0;
#X connect 12 0 8 0;
#X connect 15 0 43 0;
#X connect 15 0 46 0;
#X connect 16 0 8 0;
#X connect 17 0 19 0;
#X connect 20 0 21 0;
#X connect 21 0 8 0;
#X connect 21 1 15 0;
#X connect 22 0 48 0;
#X connect 22 0 51 0;
#X connect 22 1 23 0;
#X connect 23 0 24 0;
#X connect 24 0 25 0;
#X connect 25 0 22 0;
#X connect 26 0 22 0;
#X connect 28 0 45 0;
#X connect 28 0 53 0;
#X connect 29 0 22 0;
#X connect 30 0 22 0;
#X connect 30 1 28 0;
#X connect 31 0 52 0;
#X connect 31 1 32 0;
#X connect 32 0 33 0;
#X connect 33 0 34 0;
#X connect 34 0 31 0;
#X connect 35 0 31 0;
#X connect 37 0 31 0;
#X connect 38 0 6 1;
#X connect 40 0 41 0;
#X connect 44 0 65 0;
#X connect 49 0 22 0;
#X connect 50 0 70 0;
#X connect 51 0 47 0;
#X connect 52 0 108 0;
#X connect 54 0 31 0;
#X connect 55 0 39 0;
#X connect 56 0 61 0;
#X connect 57 0 42 0;
#X connect 58 0 63 0;
#X connect 59 0 62 0;
#X connect 59 0 69 0;
#X connect 60 0 55 1;
#X connect 61 0 55 1;
#X connect 62 0 57 1;
#X connect 63 0 57 1;
#X connect 64 0 60 0;
#X connect 65 0 30 0;
#X connect 66 0 31 0;
#X connect 66 1 59 0;
#X connect 67 0 66 0;
#X connect 68 0 67 0;
#X connect 69 0 73 0;
#X connect 69 0 101 0;
#X connect 70 0 71 0;
#X connect 71 0 55 0;
#X connect 73 0 72 0;
#X connect 74 0 0 0;
#X connect 75 0 102 0;
#X connect 76 0 1 0;
#X connect 76 0 79 0;
#X connect 79 0 5 2;
#X connect 82 0 16 0;
#X connect 82 0 15 1;
#X connect 82 0 95 0;
#X connect 84 0 37 0;
#X connect 84 0 59 1;
#X connect 84 0 97 0;
#X connect 86 0 29 0;
#X connect 86 0 28 1;
#X connect 86 0 96 0;
#X connect 88 0 90 0;
#X connect 89 0 91 0;
#X connect 90 0 86 0;
#X connect 91 0 84 0;
#X connect 92 0 12 0;
#X connect 92 0 26 0;
#X connect 92 0 35 0;
#X connect 93 0 94 0;
#X connect 94 0 82 0;
#X connect 95 0 94 0;
#X connect 96 0 90 0;
#X connect 97 0 91 0;
#X connect 98 0 11 0;
#X connect 99 0 25 0;
#X connect 100 0 34 0;
#X connect 102 0 17 0;
#X connect 102 1 103 0;
#X connect 104 0 7 0;
#X connect 105 0 104 2;
#X connect 106 0 105 0;
#X connect 107 0 110 0;
#X connect 108 0 109 0;
#X connect 109 0 57 0;
#X connect 110 0 114 0;
#X connect 113 0 112 0;
#X coords 0 -1 1 1 920 200 2 100 100;
