#N canvas 250 232 983 315 10;
#X obj 167 43 inlet~;
#X obj 213 43 inlet~;
#X obj 257 43 inlet~;
#X obj 303 43 inlet~;
#X obj 346 43 inlet~;
#X obj 392 43 inlet~;
#X obj 105 121 throw~ c1;
#X obj 173 121 throw~ c2;
#X obj 241 121 throw~ c3;
#X obj 309 121 throw~ c4;
#X obj 377 121 throw~ c5;
#X obj 445 121 throw~ c6;
#X connect 0 0 6 0;
#X connect 1 0 7 0;
#X connect 2 0 8 0;
#X connect 3 0 9 0;
#X connect 4 0 10 0;
#X connect 5 0 11 0;
