#N canvas 250 232 983 315 10;
#X obj 167 43 inlet~;
#X obj 213 43 inlet~;
#X obj 257 43 inlet~;
#X obj 303 43 inlet~;
#X obj 346 43 inlet~;
#X obj 392 43 inlet~;
#X obj 103 120 throw~ c17;
#X obj 173 121 throw~ c18;
#X obj 241 121 throw~ c19;
#X obj 309 121 throw~ c20;
#X obj 377 121 throw~ c21;
#X obj 445 121 throw~ c22;
#X connect 0 0 6 0;
#X connect 1 0 7 0;
#X connect 2 0 8 0;
#X connect 3 0 9 0;
#X connect 4 0 10 0;
#X connect 5 0 11 0;
