#N canvas 781 213 651 689 10;
#X obj 176 112 inlet;
#X obj 219 112 inlet;
#X obj 262 112 inlet;
#X obj 105 161 loadbang;
#X obj 129 248 elooper~;
#X obj 128 636 outlet~;
#X text 119 3 inlet 1 - table name;
#X text 119 16 inlet 2 - lower bounds;
#X text 119 29 inlet 3 - upper bounds;
#X text 37 88 and we can abstract that if it needs to be generalized
;
#X text 119 41 inlet 4 - xf control inlet;
#X text 5 2 single table;
#X obj 305 112 inlet;
#X obj 129 607 *~ 1;
#X obj 222 275 moses;
#X obj 270 313 moses;
#X floatatom 270 220 5 0 0 0 - - -, f 5;
#X floatatom 317 220 5 0 0 0 - - -, f 5;
#X floatatom 212 307 5 0 0 0 - - -, f 5;
#X floatatom 159 581 5 0 0 0 - - -, f 5;
#X floatatom 306 341 5 0 0 0 - - -, f 5;
#X obj 154 396 -;
#X obj 153 422 clip 0 1;
#X obj 337 366 -;
#X obj 337 388 clip 0 1;
#X floatatom 386 516 5 0 0 0 - - -, f 5;
#X msg 179 295 0;
#X obj 360 466 -;
#X obj 338 410 t b f;
#X msg 278 548 0;
#X msg 327 547 1;
#X obj 279 571 change;
#X obj 274 526 moses 1e-06;
#X obj 279 594 select 0;
#X msg 280 614 stop;
#X msg 331 617 start;
#X obj 351 577 tgl 15 0 empty empty empty 17 7 0 10 -262144 -1 -1 1
1;
#X floatatom 368 220 5 0 0 0 - - -, f 5;
#X text 367 556 shut down unused players;
#X text 328 14 creation arg is elooper loop overlap ms;
#X obj 105 212 f \$1;
#X text 21 71 xf in/out is assumed to be 0 unit before lower \, 1 unit
after upper, f 68;
#X text 119 53 inlet 5 - set xf width (in control units \, default
to 1);
#X obj 361 111 inlet;
#X text 270 202 lo;
#X text 320 202 hi;
#X text 372 203 ctrl;
#X obj 347 442 f 1;
#X obj 369 160 s \$0_width;
#X obj 396 358 r \$0_width;
#X obj 224 393 r \$0_width;
#X obj 403 420 r \$0_width;
#X floatatom 449 161 5 0 0 0 - - -, f 5;
#X floatatom 199 481 5 0 0 0 - - -, f 5;
#X obj 189 460 / 1;
#X obj 381 489 / 1;
#X floatatom 326 487 5 0 0 0 - - -, f 5;
#X obj 422 125 clip 0.001 1e+08;
#X connect 0 0 4 2;
#X connect 1 0 16 0;
#X connect 2 0 17 0;
#X connect 3 0 40 0;
#X connect 4 0 13 0;
#X connect 12 0 14 0;
#X connect 12 0 37 0;
#X connect 13 0 5 0;
#X connect 14 0 18 0;
#X connect 14 0 26 0;
#X connect 14 1 15 0;
#X connect 15 0 21 0;
#X connect 15 1 20 0;
#X connect 15 1 23 0;
#X connect 16 0 14 1;
#X connect 16 0 21 1;
#X connect 17 0 15 1;
#X connect 17 0 23 1;
#X connect 19 0 13 1;
#X connect 19 0 32 0;
#X connect 21 0 22 0;
#X connect 22 0 54 0;
#X connect 23 0 24 0;
#X connect 24 0 28 0;
#X connect 26 0 19 0;
#X connect 27 0 55 0;
#X connect 27 0 56 0;
#X connect 28 0 47 0;
#X connect 28 1 27 1;
#X connect 29 0 31 0;
#X connect 29 0 36 0;
#X connect 30 0 31 0;
#X connect 30 0 36 0;
#X connect 31 0 33 0;
#X connect 32 0 29 0;
#X connect 32 1 30 0;
#X connect 33 0 34 0;
#X connect 33 1 35 0;
#X connect 34 0 4 0;
#X connect 35 0 4 0;
#X connect 40 0 4 1;
#X connect 43 0 57 0;
#X connect 47 0 27 0;
#X connect 49 0 24 2;
#X connect 50 0 22 2;
#X connect 50 0 54 1;
#X connect 51 0 47 1;
#X connect 51 0 55 1;
#X connect 54 0 19 0;
#X connect 54 0 53 0;
#X connect 55 0 25 0;
#X connect 55 0 19 0;
#X connect 57 0 48 0;
#X connect 57 0 52 0;
