#N canvas 630 41 709 844 10;
#X obj 53 558 outlet~;
#X text 39 8 enveloping looper;
#X obj 56 99 inlet;
#X obj 53 493 *~;
#X obj 144 147 s \$0_stop;
#X obj 249 499 *~;
#X obj 53 232 r \$0_1play;
#X obj 77 469 r~ \$0_mix1;
#X obj 268 470 r~ \$0_mix2;
#X obj 249 233 r \$0_2play;
#X obj 55 150 s \$0_play;
#N canvas 141 149 456 441 mix 0;
#X obj 62 347 vline~;
#X msg 105 323 0 \$1;
#X obj 105 302 r \$0_1down;
#X obj 61 200 r \$0_1up;
#X obj 192 350 vline~;
#X msg 235 326 0 \$1;
#X obj 191 199 r \$0_2up;
#X obj 235 305 r \$0_2down;
#X obj 192 378 s~ \$0_mix2;
#X obj 63 379 s~ \$0_mix1;
#X msg 62 280 0 \, 1 \$1;
#X msg 192 279 0 \, 1 \$1;
#X obj 55 54 r \$0_1play;
#X obj 54 148 s \$0_1up;
#X obj 64 169 s \$0_2down;
#X obj 188 54 r \$0_2play;
#X obj 187 148 s \$0_2up;
#X obj 196 169 s \$0_1down;
#X msg 56 79 bang;
#X msg 188 78 bang;
#X obj 231 79 bng 15 250 50 0 empty empty empty 17 7 0 10 -262144 -1
-1;
#X obj 97 81 bng 15 250 50 0 empty empty empty 17 7 0 10 -262144 -1
-1;
#X obj 146 14 inlet;
#X floatatom 217 125 5 0 0 0 - - -;
#X floatatom 80 124 5 0 0 0 - - -;
#X obj 58 104 f;
#X obj 190 102 f;
#X connect 0 0 9 0;
#X connect 1 0 0 0;
#X connect 2 0 1 0;
#X connect 3 0 10 0;
#X connect 4 0 8 0;
#X connect 5 0 4 0;
#X connect 6 0 11 0;
#X connect 7 0 5 0;
#X connect 10 0 0 0;
#X connect 11 0 4 0;
#X connect 12 0 18 0;
#X connect 12 0 21 0;
#X connect 15 0 19 0;
#X connect 15 0 20 0;
#X connect 18 0 25 0;
#X connect 19 0 26 0;
#X connect 22 0 25 1;
#X connect 22 0 26 1;
#X connect 25 0 13 0;
#X connect 25 0 14 0;
#X connect 25 0 24 0;
#X connect 26 0 16 0;
#X connect 26 0 17 0;
#X connect 26 0 23 0;
#X restore 359 55 pd mix;
#X obj 66 257 bng 15 250 50 0 empty empty empty 17 7 0 10 -262144 -1
-1;
#X obj 268 261 bng 15 250 50 0 empty empty empty 17 7 0 10 -262144
-1 -1;
#X obj 359 23 inlet;
#X obj 428 22 inlet;
#N canvas 1003 379 400 562 table 0;
#X obj 54 209 r \$0_play;
#X obj 28 159 r \$0_stop;
#X msg 27 182 stop;
#X floatatom 72 381 5 0 0 0 - - -;
#X obj 26 284 bng 15 250 50 0 empty empty empty 17 7 0 10 -262144 -1
-1;
#X obj 55 356 f;
#X obj 89 356 + 1;
#X obj 56 405 % 2;
#X obj 52 459 bng 15 250 50 0 empty empty empty 17 7 0 10 -262144 -1
-1;
#X obj 86 459 bng 15 250 50 0 empty empty empty 17 7 0 10 -262144 -1
-1;
#X obj 52 497 s \$0_1play;
#X obj 144 498 s \$0_2play;
#X obj 54 431 route 0 1;
#X obj 125 33 inlet;
#X msg 54 231 1;
#X obj 127 141 / 44.1;
#X obj 127 118 expr size("$s1");
#X obj 213 171 s \$0_tlen;
#X obj 128 57 symbol;
#X msg 128 86 symbol \$1;
#X obj 200 198 r \$0_overlap;
#X obj 201 224 t b f;
#X obj 152 199 f;
#X obj 120 165 t b f;
#X floatatom 170 274 15 0 0 0 - - -;
#X obj 152 230 - 0;
#X obj 54 262 metro 1000;
#X obj 277 170 s \$0_tsize;
#X connect 0 0 14 0;
#X connect 1 0 2 0;
#X connect 2 0 26 0;
#X connect 5 0 3 0;
#X connect 5 0 6 0;
#X connect 5 0 7 0;
#X connect 6 0 5 1;
#X connect 7 0 12 0;
#X connect 12 0 8 0;
#X connect 12 0 10 0;
#X connect 12 1 9 0;
#X connect 12 1 11 0;
#X connect 13 0 18 0;
#X connect 14 0 26 0;
#X connect 15 0 17 0;
#X connect 15 0 23 0;
#X connect 16 0 15 0;
#X connect 16 0 27 0;
#X connect 18 0 19 0;
#X connect 19 0 16 0;
#X connect 20 0 21 0;
#X connect 21 0 22 0;
#X connect 21 1 25 1;
#X connect 22 0 25 0;
#X connect 23 0 22 0;
#X connect 23 1 22 1;
#X connect 25 0 24 0;
#X connect 25 0 26 1;
#X connect 26 0 4 0;
#X connect 26 0 5 0;
#X restore 428 92 pd table;
#X text 41 25 left inlet: bang/stop;
#X msg 125 281 set \$1;
#X obj 444 58 s \$0_tname;
#X obj 148 258 symbol;
#X obj 327 91 s \$0_overlap;
#X obj 152 203 r \$0_tname;
#X obj 151 231 symbol;
#X msg 330 273 set \$1;
#X obj 353 250 symbol;
#X obj 357 195 r \$0_tname;
#X obj 356 223 symbol;
#X obj 210 176 s \$0_play;
#X obj 275 176 s \$0_stop;
#X obj 224 146 t b b;
#X symbolatom 169 571 25 0 0 0 - - -;
#X symbolatom 168 552 25 0 0 0 - - -;
#X obj 53 305 spigot;
#X obj 107 305 r \$0_enabler;
#X obj 474 130 loadbang;
#X msg 475 152 1;
#X obj 283 310 spigot;
#X obj 344 307 r \$0_enabler;
#N canvas 1421 119 307 201 disenable 0;
#X obj 29 19 inlet;
#X msg 29 100 1;
#X obj 29 148 s \$0_enabler;
#X msg 69 100 0;
#X obj 40 78 bng 15 250 50 0 empty empty empty 17 7 0 10 -262144 -1
-1;
#X obj 105 79 bng 15 250 50 0 empty empty empty 17 7 0 10 -262144 -1
-1;
#X obj 104 19 inlet;
#X connect 0 0 1 0;
#X connect 0 0 4 0;
#X connect 1 0 2 0;
#X connect 3 0 2 0;
#X connect 6 0 3 0;
#X connect 6 0 5 0;
#X restore 293 146 pd disenable;
#X obj 473 175 s \$0_enabler;
#X obj 109 325 tgl 15 0 empty empty empty 17 7 0 10 -262144 -1 -1 1
1;
#X obj 343 332 tgl 15 0 empty empty empty 17 7 0 10 -262144 -1 -1 1
1;
#X obj 349 563 outlet start1;
#X obj 438 564 outlet start2;
#X obj 299 25 loadbang;
#X obj 53 443 tabread4~;
#X obj 250 446 tabread4~;
#X obj 53 418 line~;
#X obj 53 370 pack f f;
#X obj 53 347 f;
#X obj 251 414 line~;
#X obj 251 366 pack f f;
#X obj 251 344 f;
#X obj 11 275 r \$0_tsize;
#X obj 133 328 r \$0_tlen;
#X obj 266 289 r \$0_tsize;
#X msg 53 395 0 \, \$1 \$2;
#X msg 251 391 0 \, \$1 \$2;
#X text 46 41 second inlet: overlap length (ms);
#X text 48 59 third inlet: table name;
#X obj 55 122 route bang start stop mute oneshot enable disable speed
;
#X obj 382 147 s \$0-speed;
#X obj 139 355 r \$0-speed;
#X obj 124 382 * 1;
#X obj 378 335 r \$0_tlen;
#X obj 384 362 r \$0-speed;
#X obj 369 389 * 1;
#X msg 296 55 500;
#X connect 2 0 61 0;
#X connect 3 0 0 0;
#X connect 5 0 0 0;
#X connect 6 0 12 0;
#X connect 6 0 20 0;
#X connect 6 0 33 0;
#X connect 6 0 43 0;
#X connect 7 0 3 1;
#X connect 8 0 5 1;
#X connect 9 0 13 0;
#X connect 9 0 25 0;
#X connect 9 0 37 0;
#X connect 9 0 44 0;
#X connect 14 0 11 0;
#X connect 14 0 21 0;
#X connect 15 0 19 0;
#X connect 15 0 16 0;
#X connect 18 0 46 0;
#X connect 20 0 18 0;
#X connect 20 0 32 0;
#X connect 22 0 23 0;
#X connect 23 0 20 1;
#X connect 24 0 47 0;
#X connect 25 0 24 0;
#X connect 25 0 31 0;
#X connect 26 0 27 0;
#X connect 27 0 25 1;
#X connect 30 0 29 0;
#X connect 30 1 28 0;
#X connect 33 0 50 0;
#X connect 34 0 33 1;
#X connect 34 0 41 0;
#X connect 35 0 36 0;
#X connect 36 0 40 0;
#X connect 37 0 53 0;
#X connect 38 0 37 1;
#X connect 38 0 42 0;
#X connect 45 0 68 0;
#X connect 46 0 3 0;
#X connect 47 0 5 0;
#X connect 48 0 46 0;
#X connect 49 0 57 0;
#X connect 50 0 49 0;
#X connect 51 0 47 0;
#X connect 52 0 58 0;
#X connect 53 0 52 0;
#X connect 54 0 50 1;
#X connect 55 0 64 0;
#X connect 56 0 53 1;
#X connect 57 0 48 0;
#X connect 58 0 51 0;
#X connect 61 0 10 0;
#X connect 61 1 10 0;
#X connect 61 2 4 0;
#X connect 61 4 30 0;
#X connect 61 5 39 0;
#X connect 61 6 39 1;
#X connect 61 7 62 0;
#X connect 63 0 64 1;
#X connect 64 0 49 1;
#X connect 65 0 67 0;
#X connect 66 0 67 1;
#X connect 67 0 52 1;
#X connect 68 0 21 0;
#X connect 68 0 11 0;
