#N canvas 56 68 1513 817 10;
#N canvas 0 22 615 302 debug-signal~ 0;
#X obj 16 22 inlet~;
#X obj 16 150 snapshot~;
#X obj 16 176 outlet;
#X obj 106 22 inlet~;
#X obj 106 150 snapshot~;
#X obj 106 176 outlet;
#X obj 195 22 inlet~;
#X obj 195 150 snapshot~;
#X obj 195 176 outlet;
#X obj 279 22 inlet~;
#X obj 279 150 snapshot~;
#X obj 279 176 outlet;
#X obj 63 102 metro 300;
#X obj 63 52 loadbang;
#X msg 62 79 1;
#X obj 354 22 inlet~;
#X obj 354 150 snapshot~;
#X obj 354 176 outlet;
#X obj 439 20 inlet~;
#X obj 439 148 snapshot~;
#X obj 439 174 outlet;
#X connect 0 0 1 0;
#X connect 1 0 2 0;
#X connect 3 0 4 0;
#X connect 4 0 5 0;
#X connect 6 0 7 0;
#X connect 7 0 8 0;
#X connect 9 0 10 0;
#X connect 10 0 11 0;
#X connect 12 0 1 0;
#X connect 12 0 4 0;
#X connect 12 0 7 0;
#X connect 12 0 10 0;
#X connect 12 0 16 0;
#X connect 12 0 19 0;
#X connect 13 0 14 0;
#X connect 14 0 12 0;
#X connect 15 0 16 0;
#X connect 16 0 17 0;
#X connect 18 0 19 0;
#X connect 19 0 20 0;
#X restore 31 642 pd debug-signal~;
#X floatatom 24 676 4 0 0 0 - - -, f 4;
#X floatatom 59 676 4 0 0 0 - - -, f 4;
#X floatatom 95 676 4 0 0 0 - - -, f 4;
#X floatatom 131 676 4 0 0 0 - - -, f 4;
#X obj 180 308 hsl 75 12 0 1 0 0 empty empty empty -2 -8 0 10 -232576
-1 -1 0 1;
#X floatatom 165 676 4 0 0 0 - - -, f 4;
#X floatatom 201 676 4 0 0 0 - - -, f 4;
#X obj 177 361 s \$0-pan;
#X obj 424 72 r \$0-pan;
#X obj 274 660 outlet~;
#X obj 351 661 outlet~;
#X obj 425 660 outlet~;
#X obj 501 661 outlet~;
#X obj 579 661 outlet~;
#X obj 19 78 inlet~;
#X text 21 58 audio;
#X obj 656 660 outlet~;
#X obj 48 449 hsl 75 12 0 1 0 0 empty empty empty -2 -8 0 10 -232576
-1 -1 0 1;
#X obj 177 82 inlet panorama;
#X text 179 62 0...1;
#X obj 45 223 inlet width;
#X text 45 200 0...1;
#X obj 45 502 s \$0-width;
#X obj 495 73 r \$0-width;
#X obj 951 84 r \$0-pan;
#X obj 779 660 outlet~;
#X obj 927 661 outlet~;
#X obj 1071 73 r \$0-width;
#X obj 294 245 panner2~ 7 0 7;
#X obj 399 243 panner2~ 7 1 7;
#X obj 503 242 panner2~ 7 2 7;
#X obj 607 241 panner2~ 7 3 7;
#X obj 712 239 panner2~ 7 4 7;
#X obj 816 238 panner2~ 7 5 7;
#X obj 919 237 panner2~ 7 6 7;
#X obj 1024 235 panner2~ 7 7 7;
#X connect 0 0 1 0;
#X connect 0 1 2 0;
#X connect 0 2 3 0;
#X connect 0 3 4 0;
#X connect 0 4 6 0;
#X connect 0 5 7 0;
#X connect 5 0 8 0;
#X connect 9 0 29 1;
#X connect 9 0 30 1;
#X connect 9 0 31 1;
#X connect 9 0 32 1;
#X connect 9 0 33 1;
#X connect 9 0 34 1;
#X connect 15 0 29 0;
#X connect 15 0 30 0;
#X connect 15 0 31 0;
#X connect 15 0 32 0;
#X connect 15 0 33 0;
#X connect 15 0 34 0;
#X connect 15 0 35 0;
#X connect 15 0 36 0;
#X connect 18 0 23 0;
#X connect 19 0 5 0;
#X connect 21 0 18 0;
#X connect 24 0 29 2;
#X connect 24 0 30 2;
#X connect 24 0 31 2;
#X connect 24 0 32 2;
#X connect 24 0 33 2;
#X connect 24 0 34 2;
#X connect 25 0 35 1;
#X connect 25 0 36 1;
#X connect 28 0 35 2;
#X connect 28 0 36 2;
#X connect 29 0 10 0;
#X connect 30 0 11 0;
#X connect 31 0 12 0;
#X connect 32 0 13 0;
#X connect 33 0 14 0;
#X connect 34 0 17 0;
#X connect 35 0 26 0;
#X connect 36 0 27 0;
