#N canvas 444 132 1242 756 10;
#N canvas 0 22 615 302 debug-signal~ 0;
#X obj 16 22 inlet~;
#X obj 16 150 snapshot~;
#X obj 16 176 outlet;
#X obj 106 22 inlet~;
#X obj 106 150 snapshot~;
#X obj 106 176 outlet;
#X obj 195 22 inlet~;
#X obj 195 150 snapshot~;
#X obj 195 176 outlet;
#X obj 279 22 inlet~;
#X obj 279 150 snapshot~;
#X obj 279 176 outlet;
#X obj 63 102 metro 300;
#X obj 63 52 loadbang;
#X msg 62 79 1;
#X obj 354 22 inlet~;
#X obj 354 150 snapshot~;
#X obj 354 176 outlet;
#X obj 439 20 inlet~;
#X obj 439 148 snapshot~;
#X obj 439 174 outlet;
#X connect 0 0 1 0;
#X connect 1 0 2 0;
#X connect 3 0 4 0;
#X connect 4 0 5 0;
#X connect 6 0 7 0;
#X connect 7 0 8 0;
#X connect 9 0 10 0;
#X connect 10 0 11 0;
#X connect 12 0 1 0;
#X connect 12 0 4 0;
#X connect 12 0 7 0;
#X connect 12 0 10 0;
#X connect 12 0 16 0;
#X connect 12 0 19 0;
#X connect 13 0 14 0;
#X connect 14 0 12 0;
#X connect 15 0 16 0;
#X connect 16 0 17 0;
#X connect 18 0 19 0;
#X connect 19 0 20 0;
#X restore 31 642 pd debug-signal~;
#X floatatom 24 676 4 0 0 0 - - -;
#X floatatom 59 676 4 0 0 0 - - -;
#X floatatom 95 676 4 0 0 0 - - -;
#X floatatom 131 676 4 0 0 0 - - -;
#X obj 180 308 hsl 75 12 0 1 0 0 empty empty empty -2 -8 0 10 -232576
-1 -1 0 1;
#X floatatom 165 676 4 0 0 0 - - -;
#X floatatom 201 676 4 0 0 0 - - -;
#X obj 177 361 s \$0-pan;
#X obj 424 72 r \$0-pan;
#X obj 274 660 outlet~;
#X obj 351 661 outlet~;
#X obj 425 660 outlet~;
#X obj 501 661 outlet~;
#X obj 579 661 outlet~;
#X obj 19 78 inlet~;
#X text 21 58 audio;
#X obj 656 660 outlet~;
#X obj 311 242 panner2~ 5 0 5;
#X obj 1001 320 hsl 75 12 0 1 0 0 empty empty empty -2 -8 0 10 -232576
-1 -1 0 1;
#X obj 177 82 inlet panorama;
#X text 179 62 0...1;
#X obj 998 94 inlet width;
#X text 998 71 0...1;
#X obj 998 373 s \$0-width;
#X obj 495 73 r \$0-width;
#X obj 410 242 panner2~ 5 1 5;
#X obj 506 242 panner2~ 5 2 5;
#X obj 602 242 panner2~ 5 3 5;
#X obj 699 242 panner2~ 5 4 5;
#X obj 793 242 panner2~ 5 5 5;
#X connect 0 0 1 0;
#X connect 0 1 2 0;
#X connect 0 2 3 0;
#X connect 0 3 4 0;
#X connect 0 4 6 0;
#X connect 0 5 7 0;
#X connect 5 0 8 0;
#X connect 9 0 18 1;
#X connect 9 0 26 1;
#X connect 9 0 27 1;
#X connect 9 0 28 1;
#X connect 9 0 29 1;
#X connect 9 0 30 1;
#X connect 15 0 18 0;
#X connect 15 0 26 0;
#X connect 15 0 27 0;
#X connect 15 0 28 0;
#X connect 15 0 29 0;
#X connect 15 0 30 0;
#X connect 18 0 10 0;
#X connect 19 0 24 0;
#X connect 20 0 5 0;
#X connect 22 0 19 0;
#X connect 25 0 18 2;
#X connect 25 0 26 2;
#X connect 25 0 27 2;
#X connect 25 0 28 2;
#X connect 25 0 29 2;
#X connect 25 0 30 2;
#X connect 26 0 11 0;
#X connect 27 0 12 0;
#X connect 28 0 13 0;
#X connect 29 0 14 0;
#X connect 30 0 17 0;
