#N canvas 181 41 1302 825 10;
#N canvas 0 22 615 302 debug-signal~ 0;
#X obj 16 22 inlet~;
#X obj 16 150 snapshot~;
#X obj 16 176 outlet;
#X obj 106 22 inlet~;
#X obj 106 150 snapshot~;
#X obj 106 176 outlet;
#X obj 195 22 inlet~;
#X obj 195 150 snapshot~;
#X obj 195 176 outlet;
#X obj 279 22 inlet~;
#X obj 279 150 snapshot~;
#X obj 279 176 outlet;
#X obj 63 102 metro 300;
#X obj 63 52 loadbang;
#X msg 62 79 1;
#X obj 354 22 inlet~;
#X obj 354 150 snapshot~;
#X obj 354 176 outlet;
#X obj 439 20 inlet~;
#X obj 439 148 snapshot~;
#X obj 439 174 outlet;
#X connect 0 0 1 0;
#X connect 1 0 2 0;
#X connect 3 0 4 0;
#X connect 4 0 5 0;
#X connect 6 0 7 0;
#X connect 7 0 8 0;
#X connect 9 0 10 0;
#X connect 10 0 11 0;
#X connect 12 0 1 0;
#X connect 12 0 4 0;
#X connect 12 0 7 0;
#X connect 12 0 10 0;
#X connect 12 0 16 0;
#X connect 12 0 19 0;
#X connect 13 0 14 0;
#X connect 14 0 12 0;
#X connect 15 0 16 0;
#X connect 16 0 17 0;
#X connect 18 0 19 0;
#X connect 19 0 20 0;
#X restore 31 642 pd debug-signal~;
#X floatatom 24 676 4 0 0 0 - - -;
#X floatatom 59 676 4 0 0 0 - - -;
#X floatatom 95 676 4 0 0 0 - - -;
#X floatatom 131 676 4 0 0 0 - - -;
#X obj 180 308 hsl 75 12 0 1 0 0 empty empty empty -2 -8 0 10 -232576
-1 -1 0 1;
#X floatatom 165 676 4 0 0 0 - - -;
#X floatatom 201 676 4 0 0 0 - - -;
#X obj 177 361 s \$0-pan;
#X obj 692 65 r \$0-pan;
#X obj 274 660 outlet~;
#X obj 351 661 outlet~;
#X obj 425 660 outlet~;
#X obj 501 661 outlet~;
#X obj 45 -52 inlet~;
#X obj 84 310 hsl 75 12 0 1 0 0 empty empty empty -2 -8 0 10 -232576
-1 -1 0 1;
#X obj 273 -21 inlet panorama;
#X text 275 -41 0...1;
#X obj 177 -19 inlet width;
#X text 177 -42 0...1;
#X obj 81 363 s \$0-width;
#X obj 495 73 r \$0-width;
#X obj 400 -87 vsl 15 128 0 1 0 0 empty empty empty 0 -9 0 10 -262144
-1 -1 0 1;
#X floatatom 107 331 5 0 0 0 - - -;
#X obj 944 209 envgen 200 140 1 0  ;
#X obj 969 412 hsl 128 15 0 1 0 0 empty empty empty -2 -8 0 10 -262144
-1 -1 0 1;
#X obj 965 380 line;
#X obj 927 152 bng 15 250 50 0 empty empty empty 17 7 0 10 -262144
-1 -1;
#X msg 985 159 duration \$1;
#X obj 987 91 hsl 128 15 500 10000 0 0 empty empty empty -2 -8 0 10
-262144 -1 -1 0 1;
#X floatatom 1022 126 5 0 0 0 - - -;
#X obj 1125 133 delay \$1;
#X obj 958 559 envgen 200 140 1 0  ;
#X obj 948 737 line;
#X obj 808 767 hsl 128 15 0 1 0 0 empty empty empty -2 -8 0 10 -262144
-1 -1 0 1;
#X obj 952 -154 envgen 200 140 1 0  ;
#X obj 950 5 line;
#X obj 796 55 hsl 128 15 0 1 0 0 empty empty empty -2 -8 0 10 -262144
-1 -1 0 1;
#X obj 1110 -183 delay \$1;
#X obj 1010 -236 hsl 128 15 500 10000 0 0 empty empty empty -2 -8 0
10 -262144 -1 -1 0 1;
#X floatatom 1024 -213 5 0 0 0 - - -;
#X obj 908 -258 bng 15 250 50 0 empty empty empty 17 7 0 10 -262144
-1 -1;
#X obj 311 241 panner2~ 3 0 3;
#X obj 410 242 panner2~ 3 1 3;
#X obj 506 242 panner2~ 3 2 3;
#X obj 602 242 panner2~ 3 3 3;
#X obj 222 81 *~;
#X obj 401 -116 r \$0-volume;
#X obj 950 32 send \$0-volume;
#X obj 987 772 send \$0-volume;
#X msg 1007 -183 duration \$1;
#X obj 1025 467 hsl 128 15 500 10000 0 0 empty empty empty -2 -8 0
10 -262144 -1 -1 0 1;
#X floatatom 1039 490 5 0 0 0 - - -;
#X msg 1022 520 duration \$1;
#X connect 0 0 1 0;
#X connect 0 1 2 0;
#X connect 0 2 3 0;
#X connect 0 3 4 0;
#X connect 0 4 6 0;
#X connect 0 5 7 0;
#X connect 5 0 8 0;
#X connect 9 0 42 1;
#X connect 9 0 43 1;
#X connect 9 0 44 1;
#X connect 9 0 45 1;
#X connect 14 0 46 0;
#X connect 15 0 20 0;
#X connect 15 0 23 0;
#X connect 21 0 42 2;
#X connect 21 0 43 2;
#X connect 21 0 44 2;
#X connect 21 0 45 2;
#X connect 22 0 46 1;
#X connect 24 0 26 0;
#X connect 26 0 25 0;
#X connect 26 0 5 0;
#X connect 27 0 24 0;
#X connect 27 0 31 0;
#X connect 28 0 24 0;
#X connect 29 0 30 0;
#X connect 29 0 28 0;
#X connect 29 0 31 0;
#X connect 31 0 32 0;
#X connect 32 0 33 0;
#X connect 33 0 34 0;
#X connect 33 0 49 0;
#X connect 35 0 36 0;
#X connect 36 0 37 0;
#X connect 36 0 48 0;
#X connect 38 0 27 0;
#X connect 39 0 40 0;
#X connect 39 0 50 0;
#X connect 39 0 38 0;
#X connect 41 0 35 0;
#X connect 41 0 38 0;
#X connect 42 0 10 0;
#X connect 43 0 11 0;
#X connect 44 0 12 0;
#X connect 45 0 13 0;
#X connect 46 0 42 0;
#X connect 46 0 43 0;
#X connect 46 0 44 0;
#X connect 46 0 45 0;
#X connect 47 0 22 0;
#X connect 50 0 35 0;
#X connect 51 0 52 0;
#X connect 51 0 53 0;
#X connect 53 0 32 0;
