#N canvas 221 44 1343 934 10;
#X obj 90 103 output~ 1;
#X obj 561 771 noise~;
#X obj 561 820 *~;
#X obj 576 723 tgl 35 0 empty empty noise 0 -7 0 10 -4034 -1 -1 0 1
;
#X obj 561 794 *~ 0.5;
#X obj 615 820 *~;
#X obj 615 794 *~ 0.5;
#X obj 561 851 send~ test;
#X obj 852 247 receive~ test;
#X obj 197 63 receive~ test;
#X obj 444 45 receive~ test;
#X obj 110 363 receive~ test;
#X obj 975 761 tgl 50 0 empty empty global_mute 0 -7 0 10 -258113 -1
-1 0 1;
#X obj 975 818 s mute;
#X obj 630 724 tgl 35 0 empty empty test_tone 0 -7 0 10 -4034 -1 -1
0 1;
#X obj 615 771 osc~ 440;
#X obj 848 4 throw~2send~;
#X obj 74 25 catch~ devL;
#X obj 148 26 catch~ devR;
#X obj 705 104 vsl 15 128 -99 0 0 0 empty empty empty 0 -9 0 10 -262144
-1 -1 10237 1;
#X obj 152 103 output~ 2;
#X obj 214 103 output~ 3;
#X obj 277 103 output~ 4;
#X obj 340 103 output~ 5;
#X obj 402 103 output~ 6;
#X obj 464 103 output~ 7;
#X obj 526 103 output~ 8;
#X obj 588 103 output~ 9;
#X obj 107 445 output~ 10;
#X obj 176 445 output~ 11;
#X obj 243 445 output~ 12;
#X obj 312 445 output~ 13;
#X obj 379 445 output~ 14;
#X obj 447 445 output~ 15;
#X obj 514 445 output~ 16;
#X obj 775 329 output~ 17;
#X obj 842 329 output~ 18;
#X obj 909 329 output~ 19;
#X obj 976 329 output~ 20;
#X obj 1045 329 output~ 21;
#X obj 1112 329 output~ 22;
#X obj 1216 315 vsl 15 128 -99 0 0 0 empty empty empty 0 -9 0 10 -262144
-1 -1 9211 1;
#X obj 598 404 vsl 15 128 -99 0 0 0 empty empty empty 0 -9 0 10 -262144
-1 -1 9724 1;
#X msg 649 469 set \$1;
#X msg 1269 369 set \$1;
#X obj 922 54 loadbang;
#X msg 745 143 set \$1;
#X obj 909 81 t b b;
#X obj 937 110 s masters;
#X obj 706 45 r masters;
#X obj 870 110 s singles;
#X obj 598 349 r masters;
#X obj 1217 249 r masters;
#X obj 287 15 r singles;
#X obj 328 347 r singles;
#X obj 1021 239 r singles;
#X obj 755 762 t b b;
#X obj 755 788 elooper~;
#X msg 803 709 LIGHT_B;
#X obj 755 733 r loaded;
#X obj 754 840 *~;
#X obj 754 814 *~ 0.5;
#X obj 695 724 tgl 35 0 empty empty audio_file 0 -7 0 10 -4034 -1 -1
0 1;
#X msg 126 58 -19;
#X msg 161 58 -19;
#X msg 325 57 -19;
#X msg 359 58 -19;
#X msg 975 282 -27;
#X msg 1010 279 -27;
#X msg 1059 281 -27;
#X msg 1093 282 -27;
#X msg 705 70 -19.1998;
#X msg 1217 278 -27.1977;
#X msg 598 378 -23.1987;
#X msg 317 387 -23;
#X msg 366 389 -23;
#X msg 400 390 -23;
#X connect 1 0 4 0;
#X connect 2 0 7 0;
#X connect 3 0 2 1;
#X connect 4 0 2 0;
#X connect 5 0 7 0;
#X connect 6 0 5 0;
#X connect 8 0 35 0;
#X connect 8 0 36 0;
#X connect 8 0 37 0;
#X connect 8 0 38 0;
#X connect 8 0 39 0;
#X connect 8 0 40 0;
#X connect 9 0 20 0;
#X connect 9 0 21 0;
#X connect 9 0 22 0;
#X connect 9 0 0 0;
#X connect 10 0 23 0;
#X connect 10 0 24 0;
#X connect 10 0 25 0;
#X connect 10 0 26 0;
#X connect 10 0 27 0;
#X connect 11 0 28 0;
#X connect 11 0 29 0;
#X connect 11 0 30 0;
#X connect 11 0 31 0;
#X connect 11 0 32 0;
#X connect 11 0 33 0;
#X connect 11 0 34 0;
#X connect 12 0 13 0;
#X connect 14 0 5 1;
#X connect 15 0 6 0;
#X connect 17 0 0 0;
#X connect 18 0 20 0;
#X connect 19 0 0 2;
#X connect 19 0 20 2;
#X connect 19 0 21 2;
#X connect 19 0 22 2;
#X connect 19 0 23 2;
#X connect 19 0 24 2;
#X connect 19 0 25 2;
#X connect 19 0 27 2;
#X connect 19 0 46 0;
#X connect 19 0 26 2;
#X connect 41 0 35 2;
#X connect 41 0 36 2;
#X connect 41 0 37 2;
#X connect 41 0 38 2;
#X connect 41 0 39 2;
#X connect 41 0 40 2;
#X connect 41 0 44 0;
#X connect 42 0 28 2;
#X connect 42 0 29 2;
#X connect 42 0 30 2;
#X connect 42 0 31 2;
#X connect 42 0 32 2;
#X connect 42 0 34 2;
#X connect 42 0 43 0;
#X connect 42 0 33 2;
#X connect 43 0 73 0;
#X connect 44 0 72 0;
#X connect 45 0 47 0;
#X connect 46 0 71 0;
#X connect 47 0 50 0;
#X connect 47 1 48 0;
#X connect 49 0 71 0;
#X connect 51 0 73 0;
#X connect 52 0 72 0;
#X connect 53 0 65 0;
#X connect 53 0 66 0;
#X connect 53 0 64 0;
#X connect 53 0 63 0;
#X connect 54 0 75 0;
#X connect 54 0 76 0;
#X connect 54 0 74 0;
#X connect 55 0 69 0;
#X connect 55 0 70 0;
#X connect 55 0 68 0;
#X connect 55 0 67 0;
#X connect 56 0 57 0;
#X connect 56 1 58 0;
#X connect 57 0 61 0;
#X connect 58 0 57 2;
#X connect 59 0 56 0;
#X connect 60 0 7 0;
#X connect 61 0 60 0;
#X connect 62 0 60 1;
#X connect 63 0 0 2;
#X connect 64 0 20 2;
#X connect 65 0 22 2;
#X connect 66 0 23 2;
#X connect 67 0 37 2;
#X connect 68 0 38 2;
#X connect 69 0 39 2;
#X connect 70 0 40 2;
#X connect 71 0 19 0;
#X connect 72 0 41 0;
#X connect 73 0 42 0;
#X connect 74 0 30 2;
#X connect 75 0 31 2;
#X connect 76 0 32 2;
