#N canvas 391 249 939 780 10;
#X obj 109 118 vu 15 120 empty empty -1 -8 0 10 -66577 -1 1 0;
#X obj 99 77 - 100;
#X obj 64 -121 dbtorms;
#X obj 114 -48 inlet~;
#X msg 103 341 \; pd dsp 1;
#X obj 64 -48 line~;
#X obj 99 24 *~;
#X obj 64 -91 pack 0 50;
#X text 156 -72 audio in;
#X text 135 -122 <-- convert from dB to linear units;
#X text 153 -92 <-- make a ramp to avoid clicks or zipper noise;
#X text 258 324 MUTE logic:;
#X obj -14 199 r \$0-master-lvl;
#X obj 206 525 s \$0-master-lvl;
#X obj 64 -143 r \$0-master-out;
#X text -69 350 automatically start DSP -->;
#X obj 114 -19 hip~ 3;
#X obj 119 252 nbx 3 14 -99 0 0 0 empty empty dB -15 8 0 10 -257985
-1 -1 -19 256;
#X obj -40 438 outlet~;
#X obj -9 397 *~ 1;
#X obj 17 439 dac~ \$1;
#X obj 99 55 env~ 8192;
#X obj 140 268 tgl 15 0 empty empty mute -38 7 0 10 -258113 -1 -1 0
1;
#X floatatom 285 494 5 0 0 0 - - -;
#X obj 347 432 spigot;
#X obj 243 386 t b b;
#X msg 346 407 0;
#X msg 375 407 1;
#X obj 206 386 t b b;
#X obj 206 355 sel 0 1;
#X floatatom 280 469 5 0 0 0 - - -;
#X obj 347 458 s \$0-master-store;
#X obj 221 440 r \$0-master-store;
#X obj 391 314 s \$0-master-out;
#X obj 391 286 + 100;
#X msg 237 467 -99;
#X obj 206 467 f 0;
#X obj 207 119 r mute;
#X obj 288 31 makefilename;
#X msg 332 2 set c%d;
#X obj 288 2 f \$1;
#X obj 285 -25 t b b;
#X msg 288 57 set \$1;
#X obj 172 -48 receive~;
#X obj 285 -53 loadbang;
#X obj 127 447 outlet;
#X floatatom 290 108 5 0 0 0 - - -;
#X obj 317 157 line;
#X msg 307 128 set \$1;
#X floatatom 305 182 5 0 0 0 - - -;
#X text 367 155 |-99 |5000( fades out from current val over 15 secs
;
#X text 225 92 stores current val in line;
#X text 370 137 takes line messages to externally fade in and out;
#X obj 505 117 inlet db;
#X obj 412 118 inlet fade;
#X connect 1 0 0 0;
#X connect 2 0 7 0;
#X connect 3 0 16 0;
#X connect 5 0 6 0;
#X connect 6 0 19 0;
#X connect 6 0 21 0;
#X connect 7 0 5 0;
#X connect 12 0 17 0;
#X connect 14 0 2 0;
#X connect 16 0 6 1;
#X connect 17 0 4 0;
#X connect 17 0 24 0;
#X connect 17 0 34 0;
#X connect 17 0 45 0;
#X connect 17 0 46 0;
#X connect 19 0 18 0;
#X connect 19 0 20 0;
#X connect 21 0 1 0;
#X connect 22 0 29 0;
#X connect 24 0 31 0;
#X connect 25 0 35 0;
#X connect 25 1 26 0;
#X connect 26 0 24 1;
#X connect 27 0 24 1;
#X connect 28 0 36 0;
#X connect 28 1 27 0;
#X connect 29 0 28 0;
#X connect 29 1 25 0;
#X connect 32 0 30 0;
#X connect 32 0 36 1;
#X connect 34 0 33 0;
#X connect 35 0 13 0;
#X connect 36 0 13 0;
#X connect 36 0 23 0;
#X connect 37 0 22 0;
#X connect 38 0 42 0;
#X connect 39 0 38 0;
#X connect 40 0 38 0;
#X connect 41 0 40 0;
#X connect 41 1 39 0;
#X connect 42 0 43 0;
#X connect 43 0 16 0;
#X connect 44 0 41 0;
#X connect 46 0 48 0;
#X connect 47 0 49 0;
#X connect 48 0 47 0;
#X connect 49 0 34 0;
#X connect 53 0 17 0;
#X connect 54 0 47 0;
#X coords 0 -1 1 1 58 185 1 100 100;
