#N canvas 67 22 1302 825 10;
#N canvas 0 22 615 302 debug-signal~ 0;
#X obj 16 22 inlet~;
#X obj 16 150 snapshot~;
#X obj 16 176 outlet;
#X obj 106 22 inlet~;
#X obj 106 150 snapshot~;
#X obj 106 176 outlet;
#X obj 195 22 inlet~;
#X obj 195 150 snapshot~;
#X obj 195 176 outlet;
#X obj 279 22 inlet~;
#X obj 279 150 snapshot~;
#X obj 279 176 outlet;
#X obj 63 102 metro 300;
#X obj 63 52 loadbang;
#X msg 62 79 1;
#X obj 354 22 inlet~;
#X obj 354 150 snapshot~;
#X obj 354 176 outlet;
#X obj 439 20 inlet~;
#X obj 439 148 snapshot~;
#X obj 439 174 outlet;
#X connect 0 0 1 0;
#X connect 1 0 2 0;
#X connect 3 0 4 0;
#X connect 4 0 5 0;
#X connect 6 0 7 0;
#X connect 7 0 8 0;
#X connect 9 0 10 0;
#X connect 10 0 11 0;
#X connect 12 0 1 0;
#X connect 12 0 4 0;
#X connect 12 0 7 0;
#X connect 12 0 10 0;
#X connect 12 0 16 0;
#X connect 12 0 19 0;
#X connect 13 0 14 0;
#X connect 14 0 12 0;
#X connect 15 0 16 0;
#X connect 16 0 17 0;
#X connect 18 0 19 0;
#X connect 19 0 20 0;
#X restore 31 642 pd debug-signal~;
#X floatatom 24 676 4 0 0 0 - - -;
#X floatatom 59 676 4 0 0 0 - - -;
#X floatatom 95 676 4 0 0 0 - - -;
#X floatatom 131 676 4 0 0 0 - - -;
#X obj 180 308 hsl 75 12 0 1 0 0 empty empty empty -2 -8 0 10 -232576
-1 -1 7400 1;
#X floatatom 165 676 4 0 0 0 - - -;
#X floatatom 201 676 4 0 0 0 - - -;
#X obj 177 361 s \$0-pan;
#X obj 692 65 r \$0-pan;
#X obj 274 660 outlet~;
#X obj 351 661 outlet~;
#X obj 425 660 outlet~;
#X obj 501 661 outlet~;
#X obj 579 661 outlet~;
#X obj 19 78 inlet~;
#X text 21 58 audio;
#X obj 656 660 outlet~;
#X obj 311 242 panner2~ 5 0 5;
#X obj 84 310 hsl 75 12 0 1 0 0 empty empty empty -2 -8 0 10 -232576
-1 -1 0 1;
#X obj 177 82 inlet panorama;
#X text 179 62 0...1;
#X obj 81 84 inlet width;
#X text 81 61 0...1;
#X obj 81 363 s \$0-width;
#X obj 495 73 r \$0-width;
#X obj 410 242 panner2~ 5 1 5;
#X obj 506 242 panner2~ 5 2 5;
#X obj 602 242 panner2~ 5 3 5;
#X obj 699 242 panner2~ 5 4 5;
#X obj 793 242 panner2~ 5 5 5;
#X obj 161 229 vline~;
#X obj 99 263 snapshot~;
#X obj 87 207 tgl 15 0 empty empty empty 17 7 0 10 -262144 -1 -1 1
1;
#X obj 101 228 metro 10;
#X obj 22 -70 vsl 15 128 0 1 0 0 empty empty empty 0 -9 0 10 -262144
-1 -1 12700 1;
#X obj 138 -36 vline~;
#X obj 76 -2 snapshot~;
#X obj 64 -58 tgl 15 0 empty empty empty 17 7 0 10 -262144 -1 -1 1
1;
#X obj 78 -37 metro 10;
#X obj 105 -80 bng 15 250 50 0 empty empty empty 17 7 0 10 -262144
-1 -1;
#X floatatom 107 331 5 0 0 0 - - -;
#X msg 139 -65 0 \, 1 1000 \, 0 1000 10000;
#X msg 127 186 0 \, 1 10000 1000;
#X obj 944 209 envgen 200 140 1 0  ;
#X obj 969 412 hsl 128 15 0 1 0 0 empty empty empty -2 -8 0 10 -262144
-1 -1 12700 1;
#X obj 965 380 line;
#X obj 927 152 bng 15 250 50 0 empty empty empty 17 7 0 10 -262144
-1 -1;
#X msg 985 159 duration \$1;
#X obj 987 91 hsl 128 15 500 10000 0 0 empty empty empty -2 -8 0 10
-262144 -1 -1 1600 1;
#X floatatom 1022 126 5 0 0 0 - - -;
#X obj 1125 133 delay \$1;
#X obj 951 469 envgen 200 140 1 0  ;
#X obj 941 647 line;
#X obj 980 682 send volume;
#X obj 22 -96 r volume;
#X msg 1012 439 duration 1000;
#X obj 801 677 hsl 128 15 0 1 0 0 empty empty empty -2 -8 0 10 -262144
-1 -1 0 1;
#X obj 952 -154 envgen 200 140 1 0  ;
#X obj 950 5 line;
#X obj 950 32 send volume;
#X msg 1007 -183 duration 1000;
#X obj 796 55 hsl 128 15 0 1 0 0 empty empty empty -2 -8 0 10 -262144
-1 -1 12700 1;
#X obj 1110 -183 delay \$1;
#X obj 987 -238 hsl 128 15 500 10000 0 0 empty empty empty -2 -8 0
10 -262144 -1 -1 1000 1;
#X floatatom 1024 -213 5 0 0 0 - - -;
#X obj 944 -214 bng 15 250 50 0 empty empty empty 17 7 0 10 -262144
-1 -1;
#X connect 0 0 1 0;
#X connect 0 1 2 0;
#X connect 0 2 3 0;
#X connect 0 3 4 0;
#X connect 0 4 6 0;
#X connect 0 5 7 0;
#X connect 5 0 8 0;
#X connect 9 0 18 1;
#X connect 9 0 26 1;
#X connect 9 0 27 1;
#X connect 9 0 28 1;
#X connect 9 0 29 1;
#X connect 9 0 30 1;
#X connect 15 0 18 0;
#X connect 15 0 26 0;
#X connect 15 0 27 0;
#X connect 15 0 28 0;
#X connect 15 0 29 0;
#X connect 15 0 30 0;
#X connect 18 0 10 0;
#X connect 19 0 24 0;
#X connect 19 0 41 0;
#X connect 25 0 18 2;
#X connect 25 0 26 2;
#X connect 25 0 27 2;
#X connect 25 0 28 2;
#X connect 25 0 29 2;
#X connect 25 0 30 2;
#X connect 26 0 11 0;
#X connect 27 0 12 0;
#X connect 28 0 13 0;
#X connect 29 0 14 0;
#X connect 30 0 17 0;
#X connect 31 0 32 0;
#X connect 33 0 34 0;
#X connect 34 0 32 0;
#X connect 36 0 37 0;
#X connect 38 0 39 0;
#X connect 39 0 37 0;
#X connect 40 0 42 0;
#X connect 40 0 43 0;
#X connect 42 0 36 0;
#X connect 43 0 31 0;
#X connect 44 0 46 0;
#X connect 46 0 45 0;
#X connect 46 0 5 0;
#X connect 47 0 44 0;
#X connect 48 0 44 0;
#X connect 49 0 50 0;
#X connect 49 0 48 0;
#X connect 49 0 51 0;
#X connect 51 0 52 0;
#X connect 52 0 53 0;
#X connect 53 0 54 0;
#X connect 53 0 57 0;
#X connect 55 0 35 0;
#X connect 56 0 52 0;
#X connect 58 0 59 0;
#X connect 59 0 60 0;
#X connect 59 0 62 0;
#X connect 61 0 58 0;
#X connect 63 0 47 0;
#X connect 64 0 65 0;
#X connect 64 0 61 0;
#X connect 64 0 63 0;
#X connect 66 0 58 0;
