#N canvas 389 207 1210 426 10;
#X obj 72 93 catch~ c1;
#X obj 72 120 send~ c1;
#X text 279 16 translates all the channel throw~ objects to send~ cause
pd is fucking dumb;
#X obj 140 93 catch~ c2;
#X obj 207 93 catch~ c3;
#X obj 207 120 send~ c3;
#X obj 274 93 catch~ c4;
#X obj 274 120 send~ c4;
#X obj 341 93 catch~ c5;
#X obj 341 120 send~ c5;
#X obj 408 93 catch~ c6;
#X obj 542 93 catch~ c8;
#X obj 542 120 send~ c8;
#X obj 609 93 catch~ c9;
#X obj 609 120 send~ c9;
#X obj 676 93 catch~ c10;
#X obj 745 93 catch~ c11;
#X obj 745 120 send~ c11;
#X obj 676 120 send~ c10;
#X obj 813 93 catch~ c12;
#X obj 813 120 send~ c12;
#X obj 881 93 catch~ c13;
#X obj 881 120 send~ c13;
#X obj 948 93 catch~ c14;
#X obj 1015 93 catch~ c15;
#X obj 1015 120 send~ c15;
#X obj 1082 93 catch~ c16;
#X obj 1082 120 send~ c16;
#X obj 74 187 catch~ c17;
#X obj 74 214 send~ c17;
#X obj 142 187 catch~ c18;
#X obj 142 214 send~ c18;
#X obj 209 187 catch~ c19;
#X obj 209 214 send~ c19;
#X obj 276 187 catch~ c20;
#X obj 276 214 send~ c20;
#X obj 343 187 catch~ c21;
#X obj 343 214 send~ c21;
#X obj 410 187 catch~ c22;
#X obj 410 214 send~ c22;
#X obj 477 187 catch~ c23;
#X obj 477 214 send~ c23;
#X obj 544 187 catch~ c24;
#X obj 544 214 send~ c24;
#X obj 611 187 catch~ c25;
#X obj 611 214 send~ c25;
#X obj 680 187 catch~ c26;
#X obj 680 214 send~ c26;
#X obj 748 187 catch~ c27;
#X obj 748 214 send~ c27;
#X obj 815 187 catch~ c28;
#X obj 815 214 send~ c28;
#X obj 883 187 catch~ c29;
#X obj 883 214 send~ c29;
#X obj 950 187 catch~ c30;
#X obj 950 214 send~ c30;
#X obj 1017 187 catch~ c31;
#X obj 1017 214 send~ c31;
#X obj 1084 187 catch~ c32;
#X obj 1084 214 send~ c32;
#X obj 475 93 catch~ c7;
#X obj 475 120 send~ c7;
#X obj 948 120 send~ c14;
#X obj 140 120 send~ c2;
#X obj 408 120 send~ c6;
#X obj 68 252 catch~ c33;
#X obj 68 279 send~ c33;
#X obj 135 252 catch~ c34;
#X obj 135 279 send~ c34;
#X obj 202 252 catch~ c35;
#X obj 202 279 send~ c35;
#X obj 269 252 catch~ c36;
#X obj 269 279 send~ c36;
#X connect 0 0 1 0;
#X connect 3 0 63 0;
#X connect 4 0 5 0;
#X connect 6 0 7 0;
#X connect 8 0 9 0;
#X connect 10 0 64 0;
#X connect 11 0 12 0;
#X connect 13 0 14 0;
#X connect 15 0 18 0;
#X connect 16 0 17 0;
#X connect 19 0 20 0;
#X connect 21 0 22 0;
#X connect 23 0 62 0;
#X connect 24 0 25 0;
#X connect 26 0 27 0;
#X connect 28 0 29 0;
#X connect 30 0 31 0;
#X connect 32 0 33 0;
#X connect 34 0 35 0;
#X connect 36 0 37 0;
#X connect 38 0 39 0;
#X connect 40 0 41 0;
#X connect 42 0 43 0;
#X connect 44 0 45 0;
#X connect 46 0 47 0;
#X connect 48 0 49 0;
#X connect 50 0 51 0;
#X connect 52 0 53 0;
#X connect 54 0 55 0;
#X connect 56 0 57 0;
#X connect 58 0 59 0;
#X connect 60 0 61 0;
#X connect 65 0 66 0;
#X connect 67 0 68 0;
#X connect 69 0 70 0;
#X connect 71 0 72 0;
