#N canvas 12 22 1577 956 10;
#X obj 776 65 audio_tables_loader;
#X obj 776 44 bng 15 250 50 0 empty empty empty 17 7 0 10 -262144 -1
-1;
#X obj 776 87 bng 15 250 50 0 empty empty empty 17 7 0 10 -262144 -1
-1;
#X obj 499 65 output_stage;
#X obj 751 148 s start;
#X obj 289 58 s stop;
#X obj 135 461 bird;
#X obj 135 431 bng 15 250 50 0 empty empty empty 17 7 0 10 -262144
-1 -1;
#X obj 213 115 s headphones;
#X obj 213 87 tgl 15 0 empty empty empty 17 7 0 10 -262144 -1 -1 1
1;
#X msg 882 416 set LIGHT_A;
#X obj 289 33 bng 15 250 50 0 empty empty empty 17 7 0 10 -262144 -1
-1;
#X obj 775 110 t b b;
#X obj 810 148 s loaded;
#X obj 238 33 bng 15 250 50 0 empty empty empty 17 7 0 10 -262144 -1
-1;
#X obj 238 58 s start;
#X floatatom 1154 569 5 0 0 0 - - -;
#X obj 1205 264 f;
#X obj 1234 263 + 1;
#X floatatom 1168 405 5 0 0 0 - - -;
#X obj 1149 235 bng 15 250 50 0 empty empty empty 17 7 0 10 -262144
-1 -1;
#X obj 976 339 random 3;
#X text 1156 31 entire piece should be around 5 mins;
#X floatatom 1154 518 5 0 0 0 - - -;
#X obj 1154 494 -;
#X obj 1152 437 t b f;
#X text 1181 492 invert mod;
#X text 867 356 pick sound;
#X msg 962 416 set LIGHT_B;
#X msg 1043 413 set LIGHT_C;
#X obj 976 362 sel 0 1 2;
#X obj 135 405 r \$0-trig1;
#X obj 135 672 s \$0-reseed1;
#X obj 1181 207 r \$0-reseed1;
#X obj 1146 623 delay \$1;
#X obj 1154 591 t b f;
#X floatatom 874 390 5 0 0 0 - - -;
#X obj 1146 648 s \$0-trig1;
#X obj 1190 235 t b b;
#X obj 249 678 r \$0-index;
#X obj 129 853 bng 15 250 50 0 empty empty empty 17 7 0 10 -262144
-1 -1;
#X msg 876 838 set LIGHT_A;
#X msg 956 838 set LIGHT_B;
#X msg 1037 835 set LIGHT_C;
#X obj 129 827 r \$0-trig2;
#X obj 922 776 random 3;
#X text 813 793 pick sound;
#X obj 922 799 sel 0 1 2;
#X floatatom 820 827 5 0 0 0 - - -;
#X obj 1300 258 s \$0-newsound;
#X obj 922 752 r \$0-newsound;
#X floatatom 502 776 5 0 0 0 - - -;
#X floatatom 502 729 5 0 0 0 - - -;
#X obj 502 708 -;
#X obj 488 666 t b f;
#X text 550 752 convert to seconds;
#X text 538 695 invert mod;
#X obj 494 820 delay \$1;
#X obj 502 798 t b f;
#X obj 494 863 s \$0-trig2;
#X text 564 839 offset for 2nd set of sounds;
#X obj 129 883 bird;
#X text 1202 541 convert to seconds / base multiplier;
#X obj 1154 373 mod 5;
#X obj 1154 470 4;
#X obj 502 688 4;
#X obj 1154 541 * 1000;
#X obj 502 752 * 1000;
#X obj 1219 347 spigot;
#X obj 1155 347 spigot;
#X obj 1269 370 mod 5;
#X floatatom 1280 396 5 0 0 0 - - -;
#X text 1317 418 convert to seconds / base multiplier;
#X obj 1269 418 * 1000;
#X floatatom 1270 439 5 0 0 0 - - -;
#X obj 1262 493 delay \$1;
#X obj 1270 461 t b f;
#X obj 1262 518 s \$0-trig1;
#X floatatom 1302 312 5 0 0 0 - - -;
#X obj 1183 319 < 9;
#X obj 1243 317 >= 9;
#X obj 1205 287 mod 19;
#X obj 494 841 delay 0;
#X obj 1339 312 s \$0-index;
#X floatatom 202 773 5 0 0 0 - - -;
#X obj 300 723 > 5;
#X obj 247 728 spigot;
#X obj 336 721 < 9;
#X obj 247 753 mod 5;
#X connect 0 0 2 0;
#X connect 1 0 0 0;
#X connect 2 0 12 0;
#X connect 6 0 32 0;
#X connect 7 0 6 0;
#X connect 9 0 8 0;
#X connect 10 0 6 1;
#X connect 11 0 5 0;
#X connect 12 0 4 0;
#X connect 12 1 13 0;
#X connect 14 0 15 0;
#X connect 16 0 35 0;
#X connect 17 0 18 0;
#X connect 17 0 81 0;
#X connect 18 0 17 1;
#X connect 21 0 30 0;
#X connect 21 0 36 0;
#X connect 23 0 66 0;
#X connect 24 0 23 0;
#X connect 25 0 64 0;
#X connect 25 1 24 1;
#X connect 28 0 6 1;
#X connect 29 0 6 1;
#X connect 30 0 10 0;
#X connect 30 1 28 0;
#X connect 30 2 29 0;
#X connect 31 0 7 0;
#X connect 33 0 20 0;
#X connect 33 0 38 0;
#X connect 34 0 37 0;
#X connect 35 0 34 0;
#X connect 35 1 34 1;
#X connect 38 0 17 0;
#X connect 38 1 21 0;
#X connect 38 1 49 0;
#X connect 39 0 86 0;
#X connect 39 0 85 0;
#X connect 39 0 87 0;
#X connect 40 0 61 0;
#X connect 41 0 61 1;
#X connect 42 0 61 1;
#X connect 43 0 61 1;
#X connect 44 0 40 0;
#X connect 45 0 47 0;
#X connect 45 0 48 0;
#X connect 47 0 41 0;
#X connect 47 1 42 0;
#X connect 47 2 43 0;
#X connect 50 0 45 0;
#X connect 51 0 58 0;
#X connect 52 0 67 0;
#X connect 53 0 52 0;
#X connect 54 0 65 0;
#X connect 54 1 53 1;
#X connect 57 0 82 0;
#X connect 58 0 57 0;
#X connect 58 1 57 1;
#X connect 63 0 19 0;
#X connect 63 0 25 0;
#X connect 64 0 24 0;
#X connect 65 0 53 0;
#X connect 66 0 16 0;
#X connect 67 0 51 0;
#X connect 68 0 70 0;
#X connect 69 0 63 0;
#X connect 70 0 71 0;
#X connect 70 0 73 0;
#X connect 73 0 74 0;
#X connect 74 0 76 0;
#X connect 75 0 77 0;
#X connect 76 0 75 0;
#X connect 76 1 75 1;
#X connect 79 0 69 1;
#X connect 80 0 68 1;
#X connect 81 0 69 0;
#X connect 81 0 68 0;
#X connect 81 0 78 0;
#X connect 81 0 79 0;
#X connect 81 0 80 0;
#X connect 81 0 83 0;
#X connect 82 0 59 0;
#X connect 85 0 86 1;
#X connect 86 0 84 0;
#X connect 86 0 88 0;
#X connect 87 0 86 1;
#X connect 88 0 54 0;
