#N canvas 581 203 1042 646 10;
#X obj 776 65 audio_tables_loader;
#X obj 776 44 bng 15 250 50 0 empty empty empty 17 7 0 10 -262144 -1
-1;
#X obj 776 87 bng 15 250 50 0 empty empty empty 17 7 0 10 -262144 -1
-1;
#X obj 499 65 output_stage;
#X obj 751 148 s start;
#X obj 20 102 s headphones;
#X obj 20 79 tgl 15 0 empty empty empty 17 7 0 10 -262144 -1 -1 0 1
;
#X obj 775 110 t b b;
#X obj 810 148 s loaded;
#X obj 294 34 bng 15 250 50 0 empty empty empty 17 7 0 10 -262144 -1
-1;
#X obj 294 59 s start;
#X obj 776 14 loadbang;
#X obj 366 141 t b b b;
#X obj 238 301 bird-triangle1;
#X obj 41 36 loadbang;
#X text 41 78 uncheck to hear 2 channel version;
#X obj 292 9 r loaded;
#X obj 363 321 bird-triangle2;
#X obj 483 336 bird-triangle3;
#X obj 633 188 loadbang;
#X msg 633 253 2000;
#X obj 633 278 nbx 10 30 -1e+37 1e+37 0 0 empty empty empty 0 -8 0
10 -262144 -1 -1 2000 256;
#X msg 621 216 set \$1;
#X obj 363 217 delay 5000;
#X obj 483 256 delay 10000;
#X floatatom 363 351 5 0 0 0 - - -;
#X floatatom 238 327 5 0 0 0 - - -;
#X text 92 329 place in sequence --->;
#X text 743 284 timebase multiplier between steps;
#X floatatom 483 369 5 0 0 0 - - -;
#X floatatom 319 415 5 0 0 0 - - -;
#X text 206 416 full time elapsed;
#X connect 0 0 2 0;
#X connect 1 0 0 0;
#X connect 2 0 7 0;
#X connect 6 0 5 0;
#X connect 7 0 4 0;
#X connect 7 1 8 0;
#X connect 9 0 10 0;
#X connect 9 0 12 0;
#X connect 11 0 1 0;
#X connect 12 0 13 0;
#X connect 12 1 23 0;
#X connect 12 2 24 0;
#X connect 13 0 26 0;
#X connect 13 1 30 0;
#X connect 14 0 6 0;
#X connect 16 0 9 0;
#X connect 17 0 25 0;
#X connect 18 0 29 0;
#X connect 19 0 20 0;
#X connect 20 0 21 0;
#X connect 21 0 22 0;
#X connect 21 0 17 1;
#X connect 21 0 18 1;
#X connect 21 0 13 1;
#X connect 22 0 20 0;
#X connect 23 0 17 0;
#X connect 24 0 18 0;
